<svg xmlns="http://www.w3.org/2000/svg" width="480" height="310" viewBox="0 0 480 310">
  <defs>
    <linearGradient id="cbg" x1="0%" y1="0%" x2="100%" y2="100%">
      <stop offset="0%"   stop-color="#0f0f1a"/>
      <stop offset="100%" stop-color="#1a0533"/>
    </linearGradient>
    <filter id="cglow">
      <feGaussianBlur stdDeviation="2" result="blur"/>
      <feMerge><feMergeNode in="blur"/><feMergeNode in="SourceGraphic"/></feMerge>
    </filter>
    <!-- scanlines -->
    <pattern id="cscan" x="0" y="0" width="480" height="4" patternUnits="userSpaceOnUse">
      <rect width="480" height="1" y="3" fill="#000" opacity="0.07"/>
    </pattern>
  </defs>

  <!-- card background -->
  <rect width="480" height="310" rx="8" fill="url(#cbg)"/>
  <rect width="480" height="310" rx="8" fill="url(#cscan)"/>
  <!-- border -->
  <rect x="1" y="1" width="478" height="308" rx="7"
        fill="none" stroke="#a855f7" stroke-width="1.5" opacity="0.7"/>
  <!-- inner border accent -->
  <rect x="4" y="4" width="472" height="302" rx="5"
        fill="none" stroke="#ec4899" stroke-width="0.5" opacity="0.3"/>

  <!-- corner pixels -->
  <rect x="0"   y="0"   width="6" height="6" rx="1" fill="#a855f7"/>
  <rect x="474" y="0"   width="6" height="6" rx="1" fill="#ec4899"/>
  <rect x="0"   y="304" width="6" height="6" rx="1" fill="#ec4899"/>
  <rect x="474" y="304" width="6" height="6" rx="1" fill="#a855f7"/>

  <!-- title bar -->
  <rect x="0" y="0" width="480" height="36" rx="7" fill="#1a0533"/>
  <rect x="0" y="28" width="480" height="8"  fill="#1a0533"/>

  <!-- blinking cursor in title -->
  <rect x="14" y="10" width="8" height="14" fill="#a855f7">
    <animate attributeName="opacity" values="1;0;1" dur="1s" repeatCount="indefinite"/>
  </rect>
  <text x="30" y="24" font-family="'Courier New', monospace" font-size="13"
        font-weight="bold" fill="#f0abfc" filter="url(#cglow)"
        letter-spacing="2">⚔  RPG STAT CARD  ⚔</text>
  <text x="380" y="24" font-family="'Courier New', monospace" font-size="10"
        fill="#6b7280">LIVE DATA</text>

  <!-- player name -->
  <text x="240" y="62" font-family="'Courier New', monospace" font-size="16"
        font-weight="bold" text-anchor="middle" fill="#c084fc"
        filter="url(#cglow)">ROSCHEL MAE E. ANO-OS</text>
  <text x="240" y="78" font-family="'Courier New', monospace" font-size="10"
        text-anchor="middle" fill="#6b7280" letter-spacing="2">CLASS: FULL-STACK DEVELOPER</text>

  <!-- divider -->
  <rect x="20" y="86" width="440" height="1" fill="#a855f7" opacity="0.3"/>

  <!-- stat rows -->
  <!-- REPOS -->
  <text x="20"  y="108" font-family="'Courier New', monospace" font-size="11" fill="#c4b5fd">📦 REPOS</text>
  <text x="110" y="108" font-family="'Courier New', monospace" font-size="11" fill="#f0abfc">25</text>
  <rect x="140" y="100" width="5" height="8" rx="1" fill="#a855f7"/><rect x="146" y="100" width="5" height="8" rx="1" fill="#a855f7"/><rect x="152" y="100" width="5" height="8" rx="1" fill="#a855f7"/><rect x="158" y="100" width="5" height="8" rx="1" fill="#a855f7"/><rect x="164" y="100" width="5" height="8" rx="1" fill="#a855f7"/><rect x="170" y="100" width="5" height="8" rx="1" fill="#a855f7"/><rect x="176" y="100" width="5" height="8" rx="1" fill="#a855f7"/><rect x="182" y="100" width="5" height="8" rx="1" fill="#a855f7"/><rect x="188" y="100" width="5" height="8" rx="1" fill="#a855f7"/><rect x="194" y="100" width="5" height="8" rx="1" fill="#a855f7"/><rect x="200" y="100" width="5" height="8" rx="1" fill="#a855f7"/><rect x="206" y="100" width="5" height="8" rx="1" fill="#a855f7"/><rect x="212" y="100" width="5" height="8" rx="1" fill="#a855f7"/><rect x="218" y="100" width="5" height="8" rx="1" fill="#a855f7"/><rect x="224" y="100" width="5" height="8" rx="1" fill="#a855f7"/><rect x="230" y="100" width="5" height="8" rx="1" fill="#a855f7"/><rect x="236" y="100" width="5" height="8" rx="1" fill="#a855f7"/><rect x="242" y="100" width="5" height="8" rx="1" fill="#a855f7"/><rect x="248" y="100" width="5" height="8" rx="1" fill="#a855f7"/><rect x="254" y="100" width="5" height="8" rx="1" fill="#a855f7"/><rect x="260" y="100" width="5" height="8" rx="1" fill="#a855f7"/><rect x="266" y="100" width="5" height="8" rx="1" fill="#a855f7"/><rect x="272" y="100" width="5" height="8" rx="1" fill="#1e1e3a"/><rect x="278" y="100" width="5" height="8" rx="1" fill="#1e1e3a"/><rect x="284" y="100" width="5" height="8" rx="1" fill="#1e1e3a"/><rect x="290" y="100" width="5" height="8" rx="1" fill="#1e1e3a"/><rect x="296" y="100" width="5" height="8" rx="1" fill="#1e1e3a"/><rect x="302" y="100" width="5" height="8" rx="1" fill="#1e1e3a"/><rect x="308" y="100" width="5" height="8" rx="1" fill="#1e1e3a"/><rect x="314" y="100" width="5" height="8" rx="1" fill="#1e1e3a"/><rect x="320" y="100" width="5" height="8" rx="1" fill="#1e1e3a"/><rect x="326" y="100" width="5" height="8" rx="1" fill="#1e1e3a"/><rect x="332" y="100" width="5" height="8" rx="1" fill="#1e1e3a"/><rect x="338" y="100" width="5" height="8" rx="1" fill="#1e1e3a"/><rect x="344" y="100" width="5" height="8" rx="1" fill="#1e1e3a"/><rect x="350" y="100" width="5" height="8" rx="1" fill="#1e1e3a"/><rect x="356" y="100" width="5" height="8" rx="1" fill="#1e1e3a"/><rect x="362" y="100" width="5" height="8" rx="1" fill="#1e1e3a"/><rect x="368" y="100" width="5" height="8" rx="1" fill="#1e1e3a"/><rect x="374" y="100" width="5" height="8" rx="1" fill="#1e1e3a"/><rect x="380" y="100" width="5" height="8" rx="1" fill="#1e1e3a"/><rect x="386" y="100" width="5" height="8" rx="1" fill="#1e1e3a"/><rect x="392" y="100" width="5" height="8" rx="1" fill="#1e1e3a"/><rect x="398" y="100" width="5" height="8" rx="1" fill="#1e1e3a"/><rect x="404" y="100" width="5" height="8" rx="1" fill="#1e1e3a"/>
  <text x="420" y="108" font-family="'Courier New', monospace" font-size="10" fill="#6b7280">50%</text>

  <!-- STARS -->
  <text x="20"  y="132" font-family="'Courier New', monospace" font-size="11" fill="#c4b5fd">⭐ STARS</text>
  <text x="110" y="132" font-family="'Courier New', monospace" font-size="11" fill="#fbbf24">0</text>
  <rect x="140" y="124" width="5" height="8" rx="1" fill="#1e1e3a"/><rect x="146" y="124" width="5" height="8" rx="1" fill="#1e1e3a"/><rect x="152" y="124" width="5" height="8" rx="1" fill="#1e1e3a"/><rect x="158" y="124" width="5" height="8" rx="1" fill="#1e1e3a"/><rect x="164" y="124" width="5" height="8" rx="1" fill="#1e1e3a"/><rect x="170" y="124" width="5" height="8" rx="1" fill="#1e1e3a"/><rect x="176" y="124" width="5" height="8" rx="1" fill="#1e1e3a"/><rect x="182" y="124" width="5" height="8" rx="1" fill="#1e1e3a"/><rect x="188" y="124" width="5" height="8" rx="1" fill="#1e1e3a"/><rect x="194" y="124" width="5" height="8" rx="1" fill="#1e1e3a"/><rect x="200" y="124" width="5" height="8" rx="1" fill="#1e1e3a"/><rect x="206" y="124" width="5" height="8" rx="1" fill="#1e1e3a"/><rect x="212" y="124" width="5" height="8" rx="1" fill="#1e1e3a"/><rect x="218" y="124" width="5" height="8" rx="1" fill="#1e1e3a"/><rect x="224" y="124" width="5" height="8" rx="1" fill="#1e1e3a"/><rect x="230" y="124" width="5" height="8" rx="1" fill="#1e1e3a"/><rect x="236" y="124" width="5" height="8" rx="1" fill="#1e1e3a"/><rect x="242" y="124" width="5" height="8" rx="1" fill="#1e1e3a"/><rect x="248" y="124" width="5" height="8" rx="1" fill="#1e1e3a"/><rect x="254" y="124" width="5" height="8" rx="1" fill="#1e1e3a"/><rect x="260" y="124" width="5" height="8" rx="1" fill="#1e1e3a"/><rect x="266" y="124" width="5" height="8" rx="1" fill="#1e1e3a"/><rect x="272" y="124" width="5" height="8" rx="1" fill="#1e1e3a"/><rect x="278" y="124" width="5" height="8" rx="1" fill="#1e1e3a"/><rect x="284" y="124" width="5" height="8" rx="1" fill="#1e1e3a"/><rect x="290" y="124" width="5" height="8" rx="1" fill="#1e1e3a"/><rect x="296" y="124" width="5" height="8" rx="1" fill="#1e1e3a"/><rect x="302" y="124" width="5" height="8" rx="1" fill="#1e1e3a"/><rect x="308" y="124" width="5" height="8" rx="1" fill="#1e1e3a"/><rect x="314" y="124" width="5" height="8" rx="1" fill="#1e1e3a"/><rect x="320" y="124" width="5" height="8" rx="1" fill="#1e1e3a"/><rect x="326" y="124" width="5" height="8" rx="1" fill="#1e1e3a"/><rect x="332" y="124" width="5" height="8" rx="1" fill="#1e1e3a"/><rect x="338" y="124" width="5" height="8" rx="1" fill="#1e1e3a"/><rect x="344" y="124" width="5" height="8" rx="1" fill="#1e1e3a"/><rect x="350" y="124" width="5" height="8" rx="1" fill="#1e1e3a"/><rect x="356" y="124" width="5" height="8" rx="1" fill="#1e1e3a"/><rect x="362" y="124" width="5" height="8" rx="1" fill="#1e1e3a"/><rect x="368" y="124" width="5" height="8" rx="1" fill="#1e1e3a"/><rect x="374" y="124" width="5" height="8" rx="1" fill="#1e1e3a"/><rect x="380" y="124" width="5" height="8" rx="1" fill="#1e1e3a"/><rect x="386" y="124" width="5" height="8" rx="1" fill="#1e1e3a"/><rect x="392" y="124" width="5" height="8" rx="1" fill="#1e1e3a"/><rect x="398" y="124" width="5" height="8" rx="1" fill="#1e1e3a"/><rect x="404" y="124" width="5" height="8" rx="1" fill="#1e1e3a"/>
  <text x="420" y="132" font-family="'Courier New', monospace" font-size="10" fill="#6b7280">0%</text>

  <!-- FOLLOWERS -->
  <text x="20"  y="156" font-family="'Courier New', monospace" font-size="11" fill="#c4b5fd">👥 FOLLOWERS</text>
  <text x="130" y="156" font-family="'Courier New', monospace" font-size="11" fill="#34d399">14</text>
  <rect x="160" y="148" width="5" height="8" rx="1" fill="#10b981"/><rect x="166" y="148" width="5" height="8" rx="1" fill="#10b981"/><rect x="172" y="148" width="5" height="8" rx="1" fill="#10b981"/><rect x="178" y="148" width="5" height="8" rx="1" fill="#1e1e3a"/><rect x="184" y="148" width="5" height="8" rx="1" fill="#1e1e3a"/><rect x="190" y="148" width="5" height="8" rx="1" fill="#1e1e3a"/><rect x="196" y="148" width="5" height="8" rx="1" fill="#1e1e3a"/><rect x="202" y="148" width="5" height="8" rx="1" fill="#1e1e3a"/><rect x="208" y="148" width="5" height="8" rx="1" fill="#1e1e3a"/><rect x="214" y="148" width="5" height="8" rx="1" fill="#1e1e3a"/><rect x="220" y="148" width="5" height="8" rx="1" fill="#1e1e3a"/><rect x="226" y="148" width="5" height="8" rx="1" fill="#1e1e3a"/><rect x="232" y="148" width="5" height="8" rx="1" fill="#1e1e3a"/><rect x="238" y="148" width="5" height="8" rx="1" fill="#1e1e3a"/><rect x="244" y="148" width="5" height="8" rx="1" fill="#1e1e3a"/><rect x="250" y="148" width="5" height="8" rx="1" fill="#1e1e3a"/><rect x="256" y="148" width="5" height="8" rx="1" fill="#1e1e3a"/><rect x="262" y="148" width="5" height="8" rx="1" fill="#1e1e3a"/><rect x="268" y="148" width="5" height="8" rx="1" fill="#1e1e3a"/><rect x="274" y="148" width="5" height="8" rx="1" fill="#1e1e3a"/><rect x="280" y="148" width="5" height="8" rx="1" fill="#1e1e3a"/><rect x="286" y="148" width="5" height="8" rx="1" fill="#1e1e3a"/><rect x="292" y="148" width="5" height="8" rx="1" fill="#1e1e3a"/><rect x="298" y="148" width="5" height="8" rx="1" fill="#1e1e3a"/><rect x="304" y="148" width="5" height="8" rx="1" fill="#1e1e3a"/><rect x="310" y="148" width="5" height="8" rx="1" fill="#1e1e3a"/><rect x="316" y="148" width="5" height="8" rx="1" fill="#1e1e3a"/><rect x="322" y="148" width="5" height="8" rx="1" fill="#1e1e3a"/><rect x="328" y="148" width="5" height="8" rx="1" fill="#1e1e3a"/><rect x="334" y="148" width="5" height="8" rx="1" fill="#1e1e3a"/><rect x="340" y="148" width="5" height="8" rx="1" fill="#1e1e3a"/><rect x="346" y="148" width="5" height="8" rx="1" fill="#1e1e3a"/><rect x="352" y="148" width="5" height="8" rx="1" fill="#1e1e3a"/><rect x="358" y="148" width="5" height="8" rx="1" fill="#1e1e3a"/><rect x="364" y="148" width="5" height="8" rx="1" fill="#1e1e3a"/><rect x="370" y="148" width="5" height="8" rx="1" fill="#1e1e3a"/><rect x="376" y="148" width="5" height="8" rx="1" fill="#1e1e3a"/><rect x="382" y="148" width="5" height="8" rx="1" fill="#1e1e3a"/><rect x="388" y="148" width="5" height="8" rx="1" fill="#1e1e3a"/><rect x="394" y="148" width="5" height="8" rx="1" fill="#1e1e3a"/><rect x="400" y="148" width="5" height="8" rx="1" fill="#1e1e3a"/>
  <text x="420" y="156" font-family="'Courier New', monospace" font-size="10" fill="#6b7280">7%</text>

  <!-- FORKS -->
  <text x="20"  y="180" font-family="'Courier New', monospace" font-size="11" fill="#c4b5fd">🍴 FORKS</text>
  <text x="110" y="180" font-family="'Courier New', monospace" font-size="11" fill="#f472b6">0</text>
  <rect x="140" y="172" width="5" height="8" rx="1" fill="#1e1e3a"/><rect x="146" y="172" width="5" height="8" rx="1" fill="#1e1e3a"/><rect x="152" y="172" width="5" height="8" rx="1" fill="#1e1e3a"/><rect x="158" y="172" width="5" height="8" rx="1" fill="#1e1e3a"/><rect x="164" y="172" width="5" height="8" rx="1" fill="#1e1e3a"/><rect x="170" y="172" width="5" height="8" rx="1" fill="#1e1e3a"/><rect x="176" y="172" width="5" height="8" rx="1" fill="#1e1e3a"/><rect x="182" y="172" width="5" height="8" rx="1" fill="#1e1e3a"/><rect x="188" y="172" width="5" height="8" rx="1" fill="#1e1e3a"/><rect x="194" y="172" width="5" height="8" rx="1" fill="#1e1e3a"/><rect x="200" y="172" width="5" height="8" rx="1" fill="#1e1e3a"/><rect x="206" y="172" width="5" height="8" rx="1" fill="#1e1e3a"/><rect x="212" y="172" width="5" height="8" rx="1" fill="#1e1e3a"/><rect x="218" y="172" width="5" height="8" rx="1" fill="#1e1e3a"/><rect x="224" y="172" width="5" height="8" rx="1" fill="#1e1e3a"/><rect x="230" y="172" width="5" height="8" rx="1" fill="#1e1e3a"/><rect x="236" y="172" width="5" height="8" rx="1" fill="#1e1e3a"/><rect x="242" y="172" width="5" height="8" rx="1" fill="#1e1e3a"/><rect x="248" y="172" width="5" height="8" rx="1" fill="#1e1e3a"/><rect x="254" y="172" width="5" height="8" rx="1" fill="#1e1e3a"/><rect x="260" y="172" width="5" height="8" rx="1" fill="#1e1e3a"/><rect x="266" y="172" width="5" height="8" rx="1" fill="#1e1e3a"/><rect x="272" y="172" width="5" height="8" rx="1" fill="#1e1e3a"/><rect x="278" y="172" width="5" height="8" rx="1" fill="#1e1e3a"/><rect x="284" y="172" width="5" height="8" rx="1" fill="#1e1e3a"/><rect x="290" y="172" width="5" height="8" rx="1" fill="#1e1e3a"/><rect x="296" y="172" width="5" height="8" rx="1" fill="#1e1e3a"/><rect x="302" y="172" width="5" height="8" rx="1" fill="#1e1e3a"/><rect x="308" y="172" width="5" height="8" rx="1" fill="#1e1e3a"/><rect x="314" y="172" width="5" height="8" rx="1" fill="#1e1e3a"/><rect x="320" y="172" width="5" height="8" rx="1" fill="#1e1e3a"/><rect x="326" y="172" width="5" height="8" rx="1" fill="#1e1e3a"/><rect x="332" y="172" width="5" height="8" rx="1" fill="#1e1e3a"/><rect x="338" y="172" width="5" height="8" rx="1" fill="#1e1e3a"/><rect x="344" y="172" width="5" height="8" rx="1" fill="#1e1e3a"/><rect x="350" y="172" width="5" height="8" rx="1" fill="#1e1e3a"/><rect x="356" y="172" width="5" height="8" rx="1" fill="#1e1e3a"/><rect x="362" y="172" width="5" height="8" rx="1" fill="#1e1e3a"/><rect x="368" y="172" width="5" height="8" rx="1" fill="#1e1e3a"/><rect x="374" y="172" width="5" height="8" rx="1" fill="#1e1e3a"/><rect x="380" y="172" width="5" height="8" rx="1" fill="#1e1e3a"/><rect x="386" y="172" width="5" height="8" rx="1" fill="#1e1e3a"/><rect x="392" y="172" width="5" height="8" rx="1" fill="#1e1e3a"/><rect x="398" y="172" width="5" height="8" rx="1" fill="#1e1e3a"/><rect x="404" y="172" width="5" height="8" rx="1" fill="#1e1e3a"/>
  <text x="420" y="180" font-family="'Courier New', monospace" font-size="10" fill="#6b7280">0%</text>

  <!-- VISITORS -->
  <text x="20"  y="204" font-family="'Courier New', monospace" font-size="11" fill="#c4b5fd">👁 VISITORS</text>
  <text x="120" y="204" font-family="'Courier New', monospace" font-size="11" fill="#a78bfa">—</text>
  <rect x="160" y="196" width="5" height="8" rx="1" fill="#1e1e3a"/><rect x="166" y="196" width="5" height="8" rx="1" fill="#1e1e3a"/><rect x="172" y="196" width="5" height="8" rx="1" fill="#1e1e3a"/><rect x="178" y="196" width="5" height="8" rx="1" fill="#1e1e3a"/><rect x="184" y="196" width="5" height="8" rx="1" fill="#1e1e3a"/><rect x="190" y="196" width="5" height="8" rx="1" fill="#1e1e3a"/><rect x="196" y="196" width="5" height="8" rx="1" fill="#1e1e3a"/><rect x="202" y="196" width="5" height="8" rx="1" fill="#1e1e3a"/><rect x="208" y="196" width="5" height="8" rx="1" fill="#1e1e3a"/><rect x="214" y="196" width="5" height="8" rx="1" fill="#1e1e3a"/><rect x="220" y="196" width="5" height="8" rx="1" fill="#1e1e3a"/><rect x="226" y="196" width="5" height="8" rx="1" fill="#1e1e3a"/><rect x="232" y="196" width="5" height="8" rx="1" fill="#1e1e3a"/><rect x="238" y="196" width="5" height="8" rx="1" fill="#1e1e3a"/><rect x="244" y="196" width="5" height="8" rx="1" fill="#1e1e3a"/><rect x="250" y="196" width="5" height="8" rx="1" fill="#1e1e3a"/><rect x="256" y="196" width="5" height="8" rx="1" fill="#1e1e3a"/><rect x="262" y="196" width="5" height="8" rx="1" fill="#1e1e3a"/><rect x="268" y="196" width="5" height="8" rx="1" fill="#1e1e3a"/><rect x="274" y="196" width="5" height="8" rx="1" fill="#1e1e3a"/><rect x="280" y="196" width="5" height="8" rx="1" fill="#1e1e3a"/><rect x="286" y="196" width="5" height="8" rx="1" fill="#1e1e3a"/><rect x="292" y="196" width="5" height="8" rx="1" fill="#1e1e3a"/><rect x="298" y="196" width="5" height="8" rx="1" fill="#1e1e3a"/><rect x="304" y="196" width="5" height="8" rx="1" fill="#1e1e3a"/><rect x="310" y="196" width="5" height="8" rx="1" fill="#1e1e3a"/><rect x="316" y="196" width="5" height="8" rx="1" fill="#1e1e3a"/><rect x="322" y="196" width="5" height="8" rx="1" fill="#1e1e3a"/><rect x="328" y="196" width="5" height="8" rx="1" fill="#1e1e3a"/><rect x="334" y="196" width="5" height="8" rx="1" fill="#1e1e3a"/><rect x="340" y="196" width="5" height="8" rx="1" fill="#1e1e3a"/><rect x="346" y="196" width="5" height="8" rx="1" fill="#1e1e3a"/><rect x="352" y="196" width="5" height="8" rx="1" fill="#1e1e3a"/><rect x="358" y="196" width="5" height="8" rx="1" fill="#1e1e3a"/><rect x="364" y="196" width="5" height="8" rx="1" fill="#1e1e3a"/><rect x="370" y="196" width="5" height="8" rx="1" fill="#1e1e3a"/><rect x="376" y="196" width="5" height="8" rx="1" fill="#1e1e3a"/><rect x="382" y="196" width="5" height="8" rx="1" fill="#1e1e3a"/><rect x="388" y="196" width="5" height="8" rx="1" fill="#1e1e3a"/><rect x="394" y="196" width="5" height="8" rx="1" fill="#1e1e3a"/><rect x="400" y="196" width="5" height="8" rx="1" fill="#1e1e3a"/>
  <text x="420" y="204" font-family="'Courier New', monospace" font-size="10" fill="#6b7280">—</text>

  <!-- divider -->
  <rect x="20" y="218" width="440" height="1" fill="#a855f7" opacity="0.3"/>

  <!-- XP bar label -->
  <text x="20" y="238" font-family="'Courier New', monospace" font-size="11"
        fill="#c4b5fd">⚡ OVERALL XP</text>
  <!-- XP bar (average of all stats) -->
  <rect x="20" y="244" width="5" height="8" rx="1" fill="#818cf8"/><rect x="26" y="244" width="5" height="8" rx="1" fill="#818cf8"/><rect x="32" y="244" width="5" height="8" rx="1" fill="#818cf8"/><rect x="38" y="244" width="5" height="8" rx="1" fill="#818cf8"/><rect x="44" y="244" width="5" height="8" rx="1" fill="#818cf8"/><rect x="50" y="244" width="5" height="8" rx="1" fill="#818cf8"/><rect x="56" y="244" width="5" height="8" rx="1" fill="#818cf8"/><rect x="62" y="244" width="5" height="8" rx="1" fill="#818cf8"/><rect x="68" y="244" width="5" height="8" rx="1" fill="#818cf8"/><rect x="74" y="244" width="5" height="8" rx="1" fill="#818cf8"/><rect x="80" y="244" width="5" height="8" rx="1" fill="#1e1e3a"/><rect x="86" y="244" width="5" height="8" rx="1" fill="#1e1e3a"/><rect x="92" y="244" width="5" height="8" rx="1" fill="#1e1e3a"/><rect x="98" y="244" width="5" height="8" rx="1" fill="#1e1e3a"/><rect x="104" y="244" width="5" height="8" rx="1" fill="#1e1e3a"/><rect x="110" y="244" width="5" height="8" rx="1" fill="#1e1e3a"/><rect x="116" y="244" width="5" height="8" rx="1" fill="#1e1e3a"/><rect x="122" y="244" width="5" height="8" rx="1" fill="#1e1e3a"/><rect x="128" y="244" width="5" height="8" rx="1" fill="#1e1e3a"/><rect x="134" y="244" width="5" height="8" rx="1" fill="#1e1e3a"/><rect x="140" y="244" width="5" height="8" rx="1" fill="#1e1e3a"/><rect x="146" y="244" width="5" height="8" rx="1" fill="#1e1e3a"/><rect x="152" y="244" width="5" height="8" rx="1" fill="#1e1e3a"/><rect x="158" y="244" width="5" height="8" rx="1" fill="#1e1e3a"/><rect x="164" y="244" width="5" height="8" rx="1" fill="#1e1e3a"/><rect x="170" y="244" width="5" height="8" rx="1" fill="#1e1e3a"/><rect x="176" y="244" width="5" height="8" rx="1" fill="#1e1e3a"/><rect x="182" y="244" width="5" height="8" rx="1" fill="#1e1e3a"/><rect x="188" y="244" width="5" height="8" rx="1" fill="#1e1e3a"/><rect x="194" y="244" width="5" height="8" rx="1" fill="#1e1e3a"/><rect x="200" y="244" width="5" height="8" rx="1" fill="#1e1e3a"/><rect x="206" y="244" width="5" height="8" rx="1" fill="#1e1e3a"/><rect x="212" y="244" width="5" height="8" rx="1" fill="#1e1e3a"/><rect x="218" y="244" width="5" height="8" rx="1" fill="#1e1e3a"/><rect x="224" y="244" width="5" height="8" rx="1" fill="#1e1e3a"/><rect x="230" y="244" width="5" height="8" rx="1" fill="#1e1e3a"/><rect x="236" y="244" width="5" height="8" rx="1" fill="#1e1e3a"/><rect x="242" y="244" width="5" height="8" rx="1" fill="#1e1e3a"/><rect x="248" y="244" width="5" height="8" rx="1" fill="#1e1e3a"/><rect x="254" y="244" width="5" height="8" rx="1" fill="#1e1e3a"/><rect x="260" y="244" width="5" height="8" rx="1" fill="#1e1e3a"/><rect x="266" y="244" width="5" height="8" rx="1" fill="#1e1e3a"/><rect x="272" y="244" width="5" height="8" rx="1" fill="#1e1e3a"/><rect x="278" y="244" width="5" height="8" rx="1" fill="#1e1e3a"/><rect x="284" y="244" width="5" height="8" rx="1" fill="#1e1e3a"/><rect x="290" y="244" width="5" height="8" rx="1" fill="#1e1e3a"/><rect x="296" y="244" width="5" height="8" rx="1" fill="#1e1e3a"/><rect x="302" y="244" width="5" height="8" rx="1" fill="#1e1e3a"/><rect x="308" y="244" width="5" height="8" rx="1" fill="#1e1e3a"/><rect x="314" y="244" width="5" height="8" rx="1" fill="#1e1e3a"/><rect x="320" y="244" width="5" height="8" rx="1" fill="#1e1e3a"/><rect x="326" y="244" width="5" height="8" rx="1" fill="#1e1e3a"/><rect x="332" y="244" width="5" height="8" rx="1" fill="#1e1e3a"/><rect x="338" y="244" width="5" height="8" rx="1" fill="#1e1e3a"/><rect x="344" y="244" width="5" height="8" rx="1" fill="#1e1e3a"/><rect x="350" y="244" width="5" height="8" rx="1" fill="#1e1e3a"/><rect x="356" y="244" width="5" height="8" rx="1" fill="#1e1e3a"/><rect x="362" y="244" width="5" height="8" rx="1" fill="#1e1e3a"/><rect x="368" y="244" width="5" height="8" rx="1" fill="#1e1e3a"/><rect x="374" y="244" width="5" height="8" rx="1" fill="#1e1e3a"/><rect x="380" y="244" width="5" height="8" rx="1" fill="#1e1e3a"/><rect x="386" y="244" width="5" height="8" rx="1" fill="#1e1e3a"/><rect x="392" y="244" width="5" height="8" rx="1" fill="#1e1e3a"/><rect x="398" y="244" width="5" height="8" rx="1" fill="#1e1e3a"/><rect x="404" y="244" width="5" height="8" rx="1" fill="#1e1e3a"/><rect x="410" y="244" width="5" height="8" rx="1" fill="#1e1e3a"/><rect x="416" y="244" width="5" height="8" rx="1" fill="#1e1e3a"/><rect x="422" y="244" width="5" height="8" rx="1" fill="#1e1e3a"/><rect x="428" y="244" width="5" height="8" rx="1" fill="#1e1e3a"/><rect x="434" y="244" width="5" height="8" rx="1" fill="#1e1e3a"/><rect x="440" y="244" width="5" height="8" rx="1" fill="#1e1e3a"/><rect x="446" y="244" width="5" height="8" rx="1" fill="#1e1e3a"/><rect x="452" y="244" width="5" height="8" rx="1" fill="#1e1e3a"/>

  <!-- footer -->
  <rect x="0" y="278" width="480" height="32" rx="0" fill="#0a0a14"/>
  <rect x="0" y="302" width="480" height="8"  rx="0" fill="#0a0a14"/>
  <text x="240" y="292" font-family="'Courier New', monospace" font-size="9"
        text-anchor="middle" fill="#374151" letter-spacing="1">UPDATED: Thu, 14 May 2026 14:13:20 GMT</text>
</svg>